<svg xmlns="http://www.w3.org/2000/svg" viewBox="0 0 32 32">
	<path fill="currentcolor"
		d="M20.8 15.04v1.92c0 .35-.28.64-.64.64h-8.32a.64.64 0 0 1-.64-.64v-1.92c0-.35.28-.64.64-.64h8.32c.36 0 .64.29.64.64zM16 20.8c-2.14 0-2.14 3.2 0 3.2s2.14-3.2 0-3.2zm4.16-11.2h-8.32a.64.64 0 0 0-.64.64v1.92c0 .36.28.64.64.64h8.32c.36 0 .64-.29.64-.64v-1.92a.64.64 0 0 0-.64-.64zm10.72-4.27-2.29 19.64L15.97 32 3.36 24.97 1.12 5.33 15.97 0zM22.4 8.32c0-1.06-.86-1.92-1.92-1.92h-8.96c-1.06 0-1.92.86-1.92 1.92v15.36c0 1.06.86 1.92 1.92 1.92h8.96c1.06 0 1.92-.86 1.92-1.92z" />
</svg>
