<svg xmlns="http://www.w3.org/2000/svg" viewBox="0 0 24 24">
	<path fill="none" d="M0 0h24v24H0z" />
	<path fill="currentcolor"
		d="M7.44 5.35c.64 0 1.23.05 1.77.2a3.83 3.83 0 0 1 1.38.54c.4.25.69.6.89 1.04.2.45.29 1 .29 1.58 0 .7-.15 1.29-.5 1.73-.29.45-.78.85-1.37 1.14.84.25 1.48.7 1.87 1.29.4.6.64 1.34.64 2.18 0 .69-.15 1.28-.4 1.78-.24.5-.63.94-1.08 1.23a5.08 5.08 0 0 1-1.57.7 7.7 7.7 0 0 1-1.77.24H1V5.35h6.44zm-.4 5.54c.55 0 1-.15 1.34-.4.34-.24.49-.69.49-1.23 0-.3-.05-.6-.15-.8a1.4 1.4 0 0 0-.44-.49c-.2-.1-.4-.2-.64-.24-.25-.05-.5-.05-.79-.05H4v3.21h3.05zm.16 5.84c.3 0 .59-.05.83-.1a1.72 1.72 0 0 0 .7-.3 1.76 1.76 0 0 0 .48-.54c.1-.25.2-.55.2-.9 0-.69-.2-1.18-.59-1.53-.4-.3-.94-.44-1.57-.44H4v3.8h3.2zm9.49-.05c.4.4.98.6 1.77.6.54 0 1.03-.16 1.42-.4.4-.3.64-.6.74-.9h2.41a4.83 4.83 0 0 1-1.77 2.58c-.79.5-1.72.79-2.85.79a5.75 5.75 0 0 1-2.12-.4 3.93 3.93 0 0 1-1.57-1.08 3.93 3.93 0 0 1-.98-1.64 5.85 5.85 0 0 1-.35-2.12c0-.75.1-1.44.35-2.08a5.34 5.34 0 0 1 1.03-1.68c.44-.45.98-.84 1.57-1.1a5.49 5.49 0 0 1 2.07-.39c.84 0 1.57.15 2.21.5a4 4 0 0 1 1.53 1.33 6.01 6.01 0 0 1 .88 1.88c.1.7.15 1.39.1 2.18H16c0 .8.3 1.53.69 1.93zm3.1-5.2a2.12 2.12 0 0 0-1.53-.54 2.3 2.3 0 0 0-1.77.79 1.32 1.32 0 0 0-.34.7c-.05.24-.1.44-.1.64h4.42a2.63 2.63 0 0 0-.68-1.59zM15.46 6.3h5.5v1.34h-5.5V6.29z" />
</svg>
