<svg xmlns="http://www.w3.org/2000/svg" viewBox="0 0 24 24" width="24" height="24">
	<path fill="none" d="M0 0h24v24H0z" />
	<path fill="currentcolor"
		d="M15.5 2a3.5 3.5 0 0 1 3.44 4.16l-.02.07a4.5 4.5 0 0 1 .3 8.43l-1.08 6.5a1 1 0 0 1-.99.84H6.85a1 1 0 0 1-.99-.84L4.83 15A3 3 0 0 1 4 9.17V9a6 6 0 0 1 8.57-5.42A3.5 3.5 0 0 1 15.5 2zM9 15H6.86l.83 5H9v-5zm4 0h-2v5h2v-5zm4.14 0H15v5h1.3l.84-5zM10 5a4 4 0 0 0-4 3.77v.36A2 2 0 0 1 4.82 11l-.15.06A1 1 0 0 0 5 13h12.5a2.5 2.5 0 1 0-.96-4.81l-.17.08a2 2 0 0 1-2.66-.8l-.07-.14A4 4 0 0 0 10 5zm5.5-1a1.5 1.5 0 0 0-1.29.73 6 6 0 0 1 1.24 1.76c.45-.22.93-.38 1.45-.45A1.5 1.5 0 0 0 15.5 4z" />
</svg>
