<svg xmlns="http://www.w3.org/2000/svg" viewBox="0 0 24 24">
	<path fill="none" d="M0 0h24v24H0z" />
	<path fill="currentcolor"
		d="M19.99 11.57a7.96 7.96 0 0 0-1.57-4.35 9.75 9.75 0 0 1-.92.87 13.16 13.16 0 0 1-3.32 2.01l.46 1.01a9.19 9.19 0 0 1 .1.27 19.2 19.2 0 0 1 5.25.2zM10.6 4.12a46.16 46.16 0 0 1 2.7 4.27 11.1 11.1 0 0 0 3.04-1.77 7.88 7.88 0 0 0 .8-.75A7.97 7.97 0 0 0 12 4a8.05 8.05 0 0 0-1.4.12zM4.25 10a29.21 29.21 0 0 0 2.04-.13 31.53 31.53 0 0 0 4.87-.82 54.37 54.37 0 0 0-2.7-4.22A8.02 8.02 0 0 0 4.26 10zm1.53 7.04c.4-.57.9-1.21 1.58-1.9a12.62 12.62 0 0 1 5.15-3.3l.07-.01c-.17-.37-.32-.7-.48-1A30.09 30.09 0 0 1 4 12a7.97 7.97 0 0 0 1.78 5.04zM15 19.41a35.95 35.95 0 0 0-1.63-5.71c-2 .72-3.6 1.79-4.83 3.05a9.77 9.77 0 0 0-1.31 1.66A7.96 7.96 0 0 0 12 20a7.98 7.98 0 0 0 3-.58zm1.88-1.08a8 8 0 0 0 2.99-4.87 12.2 12.2 0 0 0-1.25-.24 12.02 12.02 0 0 0-3.18-.03 39.37 39.37 0 0 1 1.44 5.14zM12 22a10 10 0 1 1 0-20 10 10 0 0 1 0 20z" />
</svg>
