<svg xmlns="http://www.w3.org/2000/svg" xml:space="preserve" style="enable-background:new 0 0 122.89 122.89"
	viewBox="0 0 122.89 122.89">
	<path
		d="M61.44 33.47a28.01 28.01 0 1 0 .02 56.02 28.01 28.01 0 0 0-.02-56.02zm55.93 2.54-.54-1.17-.84.98a19.2 19.2 0 0 1-7.7 5.3l-.84.3.33.84a50.25 50.25 0 0 1-46.38 69.52 50.24 50.24 0 1 1 21.56-95.62l.78.37.33-.84a19.34 19.34 0 0 1 5.68-7.42l.99-.84-1.13-.59A60.83 60.83 0 0 0 61.58 0h-.16a61.44 61.44 0 1 0 55.92 35.94l.03.07zm-2.97-12.82a12.75 12.75 0 1 0-25.5 0 12.76 12.76 0 1 0 25.5 0z"
		fill-rule="evenodd" clip-rule="evenodd" fill="currentcolor" />
</svg>
