<svg xmlns="http://www.w3.org/2000/svg" fill="none" viewBox="0 0 24 24">
  <path fill="currentcolor" d="M3.2 1.92c-.7 0-1.28.58-1.28 1.28v17.6c0 .7.58 1.28 1.28 1.28h17.6c.7 0 1.28-.58 1.28-1.28V3.2c0-.7-.58-1.28-1.28-1.28H3.2Zm0 .96h17.6c.18 0 .32.14.32.32v17.6c0 .18-.14.32-.32.32H3.2a.32.32 0 0 1-.32-.32V3.2c0-.18.14-.32.32-.32Zm7.84 8.16v6.04c0 .92-.35 1.16-.96 1.16-.64 0-1.08-.4-1.37-.91l-1.51.91c.44.92 1.5 1.92 3 1.92 1.63 0 2.76-.87 2.76-2.8v-6.32h-1.92Zm5.98 0c-1.64 0-2.69 1.05-2.69 2.42 0 1.5.88 2.2 2.2 2.76l.46.2c.84.36 1.25.58 1.25 1.21 0 .53-.4.9-1.16.9-.9 0-1.33-.6-1.72-1.25l-1.44.96a3.34 3.34 0 0 0 3.2 1.92c1.74 0 3.04-.9 3.04-2.55 0-1.53-.88-2.21-2.44-2.88l-.45-.2c-.79-.34-1.13-.56-1.13-1.1 0-.45.34-.8.88-.8.52 0 .86.23 1.17.8l1.43-.92c-.6-1.07-1.44-1.47-2.6-1.47Z"/>
</svg>
