<svg xmlns="http://www.w3.org/2000/svg" fill="none" viewBox="0 0 198 233">
	<path stroke="currentcolor" stroke-width="8"
		d="M198 124h-70a16 16 0 0 0-16 16v28a16 16 0 0 0 16 16h48a2 2 0 0 1 2 2v25.5a2 2 0 0 1-2 2h-67.5M108 229h69.5a16 16 0 0 0 16-16v-28.5a16 16 0 0 0-16-16h-49a2 2 0 0 1-2-2V142a2 2 0 0 1 2-2H198M7 112.5V19A15 15 0 0 1 22 4h53a15 15 0 0 1 15 15v93.5m-68 0V22a2 2 0 0 1 2-2h48.5a2 2 0 0 1 2 2v90.5M197.5 4H125a12 12 0 0 0-12 12v80a12 12 0 0 0 12 12h66a2 2 0 0 0 2-2V52a2 2 0 0 0-2-2h-36.5m0 14h22a2 2 0 0 1 2 2v25.5a2 2 0 0 1-2 2H130a2 2 0 0 1-2-2V22a2 2 0 0 1 2-2h67.5M0 124h26a16 16 0 0 1 16 16v26.5a2 2 0 0 0 2 2h10a2 2 0 0 0 2-2V140a16 16 0 0 1 16-16h26.5M0 140h25a2 2 0 0 1 2 2v69.5a2 2 0 0 1-2 2H0M0 229h26a16 16 0 0 0 16-16v-27a2 2 0 0 1 2-2h10a2 2 0 0 1 2 2v27a16 16 0 0 0 16 16h26.5m0-89h-25a2 2 0 0 0-2 2v69.5a2 2 0 0 0 2 2h25" />
</svg>
