<svg xmlns="http://www.w3.org/2000/svg" fill="none" viewBox="0 0 25 24">
  <path fill="currentcolor" d="M12.81 13.5a1.5 1.5 0 1 1 0-3 1.5 1.5 0 0 1 0 3Zm-.53 3 .53.6.53-.6h-1.06Zm-2-.13c-.76-.08-1.52-.2-2.28-.37-.07.35-.13.7-.17 1.02-.19 1.58.08 2.54.48 2.77.4.24 1.37-.02 2.65-.97.26-.2.52-.42.79-.66-.52-.57-1-1.17-1.46-1.8Zm7.34-.37c-.72.16-1.48.28-2.29.37-.45.62-.94 1.22-1.46 1.8.27.23.53.45.8.65 1.27.95 2.24 1.2 2.64.97.4-.23.67-1.19.48-2.77-.04-.34-.1-.68-.17-1.02Zm1.45-.39c.58 2.64.27 4.74-1 5.48-1.3.74-3.26-.04-5.26-1.86-2 1.82-3.97 2.6-5.25 1.86-1.28-.74-1.58-2.84-1-5.48C3.97 14.8 2.3 13.48 2.3 12s1.67-2.8 4.24-3.61c-.57-2.64-.27-4.74 1.01-5.48 1.28-.74 3.25.04 5.25 1.86 2-1.82 3.97-2.6 5.25-1.86 1.28.74 1.59 2.84 1.01 5.48 2.57.82 4.24 2.13 4.24 3.61s-1.67 2.8-4.24 3.61Zm-7.32-9.78c-.25-.23-.52-.44-.8-.65-1.27-.96-2.24-1.2-2.64-.97-.4.23-.67 1.19-.48 2.77.04.33.1.67.17 1.02.76-.17 1.52-.29 2.29-.37.47-.65.96-1.25 1.46-1.8Zm3.58 1.8c.8.08 1.57.21 2.29.37.07-.35.13-.7.17-1.02.19-1.58-.08-2.54-.48-2.77-.4-.24-1.37.01-2.64.97-.28.2-.54.42-.8.65.5.55.99 1.15 1.46 1.8Zm-2-.12a19.1 19.1 0 0 0-.52-.61l-.53.6h1.06Zm-4.15 7.2-.52-.92-.27.76c.26.06.52.1.8.15Zm1.94.23c1.12.08 2.26.08 3.39 0 .63-.94 1.2-1.92 1.7-2.94-.5-1.02-1.07-2-1.7-2.94a22.9 22.9 0 0 0-3.4 0A22.9 22.9 0 0 0 9.43 12c.5 1.02 1.06 2 1.7 2.94Zm5.85-4.73c.1-.26.18-.51.26-.76-.26-.06-.53-.1-.79-.15l.53.91ZM6.94 9.84c-.34.1-.66.23-.96.36-1.47.62-2.17 1.33-2.17 1.8 0 .46.7 1.17 2.17 1.8.3.13.62.25.96.36.22-.7.5-1.42.83-2.16-.32-.7-.6-1.43-.83-2.16Zm1.45-.4c.08.26.17.51.27.77l.52-.91c-.27.04-.53.1-.79.15Zm10.3 4.72c.33-.1.65-.23.96-.36 1.46-.63 2.16-1.34 2.16-1.8 0-.47-.7-1.18-2.16-1.8a8.72 8.72 0 0 0-.97-.36c-.22.7-.5 1.42-.82 2.16.32.74.6 1.46.82 2.16Zm-1.46.4-.26-.77-.53.91c.27-.04.53-.1.79-.15Z"/>
</svg>
