<svg xmlns="http://www.w3.org/2000/svg" preserveAspectRatio="xMidYMid" viewBox="0 0 256 244">
	<path fill="currentcolor"
		d="M177.38 169.73a18.25 18.25 0 0 0 16.29-18.9 18.3 18.3 0 0 0-18.24-17.59h-.65a18.23 18.23 0 0 0-17.6 18.9 18.7 18.7 0 0 0 5.21 12.05c-11.07 21.83-28.01 37.8-53.42 51.15-17.27 9.12-35.18 12.38-53.1 10.1-14.66-1.95-26.06-8.47-33.23-19.22-10.43-15.96-11.4-33.23-2.6-50.5 6.18-12.38 15.96-21.5 22.15-26.06a175.7 175.7 0 0 1-4.24-16.61c-47.24 34.2-42.35 80.47-28.02 102.3 10.75 16.28 32.58 26.38 56.69 26.38 6.51 0 13.03-.65 19.54-2.28 41.7-8.14 73.3-32.9 91.22-69.72zm57.34-40.4c-24.76-28.99-61.25-44.95-102.95-44.95h-5.2a17.9 17.9 0 0 0-15.97-9.78h-.65a18.23 18.23 0 0 0-17.6 18.9 18.3 18.3 0 0 0 18.25 17.6h.65a18.35 18.35 0 0 0 15.96-11.08h5.87c24.75 0 48.21 7.16 69.39 21.17 16.28 10.75 28.01 24.76 34.53 41.7 5.54 13.68 5.2 27.04-.65 38.44-9.13 17.27-24.44 26.72-44.63 26.72-13.04 0-25.41-3.91-31.93-6.84a192.49 192.49 0 0 1-14.66 11.72c14 6.52 28.34 10.1 42.02 10.1 31.28 0 54.4-17.26 63.2-34.53 9.45-18.9 8.8-51.47-15.63-79.16zm-165.5 45.94a18.3 18.3 0 0 0 18.25 17.6h.65a18.23 18.23 0 0 0 17.6-18.9 18.3 18.3 0 0 0-18.25-17.6h-.65c-.66 0-1.63 0-2.28.33-13.36-22.15-18.9-46.26-16.94-72.32 1.3-19.55 7.81-36.5 19.22-50.5 9.44-12.05 27.69-17.92 40.07-18.24 34.53-.66 49.19 42.35 50.16 59.61 4.24.98 11.4 3.26 16.3 4.9C189.42 27.36 156.84 0 125.57 0c-29.32 0-56.35 21.18-67.1 52.45-15 41.7-5.22 81.77 13.03 113.37-1.63 2.28-2.61 5.87-2.28 9.45z" />
</svg>
