<svg xmlns="http://www.w3.org/2000/svg" fill="none" viewBox="0 0 24 24">
	<path fill="currentcolor"
		d="M12 2a10 10 0 1 1 0 20 10 10 0 0 1 0-20Zm-1.99 13.33c.15.54.13 1.04-.02 1.5l-.05.15c-.13.3-.3.58-.53.82-.58.63-1.4.87-1.74.67-.38-.22-.19-1.11.49-1.83.72-.76 1.76-1.26 1.76-1.26l.1-.05Zm8.26-9.05c-.45-1.78-3.4-2.36-6.18-1.37a14 14 0 0 0-4.75 2.72c-1.53 1.44-1.78 2.69-1.68 3.2.36 1.85 2.88 3.06 3.92 3.95-.3.16-2.54 1.28-3.07 2.44-.56 1.23.09 2.1.51 2.22 1.32.36 2.67-.3 3.4-1.38.7-1.05.63-2.4.33-3.06.41-.11.9-.16 1.52-.09 1.75.2 2.1 1.3 2.03 1.75a1.2 1.2 0 0 1-.56.79c-.13.07-.17.1-.15.15 0 .07.07.07.17.06.14-.02.91-.37.95-1.22.04-1.08-.99-2.28-2.81-2.25-.75.01-1.23.07-1.56.21a.3.3 0 0 0-.1-.09c-1.12-1.21-3.2-2.06-3.12-3.67.03-.6.24-2.14 4-4.02 3.09-1.53 5.55-1.1 5.98-.17.6 1.34-1.32 3.83-4.53 4.19-1.22.13-1.86-.34-2.02-.52-.18-.18-.2-.2-.26-.16-.1.05-.04.21 0 .32.1.25.48.68 1.16.9.59.2 2.02.3 3.75-.37 1.94-.75 3.45-2.84 3.01-4.59l.06.06Z" />
</svg>
