<svg xmlns="http://www.w3.org/2000/svg" fill="none" viewBox="0 0 24 24">
  <path fill="currentColor" d="M18.92 4.64a6.3 6.3 0 0 0-8.35-1.76L5.79 5.85a5.45 5.45 0 0 0-1.9 7.2 5.1 5.1 0 0 0-.8 2 5.62 5.62 0 0 0 .99 4.31 6.34 6.34 0 0 0 8.36 1.77l4.77-2.97a5.44 5.44 0 0 0 1.88-7.19 5.56 5.56 0 0 0-.17-6.33ZM10.1 19.62a3.82 3.82 0 0 1-4.06-1.48 3.36 3.36 0 0 1-.6-2.6l.1-.43.08-.28.26.17c.56.42 1.2.71 1.87.92l.17.06-.02.16c-.02.23.05.5.19.7a1.15 1.15 0 0 0 1.52.33l4.76-2.96a1 1 0 0 0 .45-.65.98.98 0 0 0-.17-.78 1.18 1.18 0 0 0-1.53-.32l-1.8 1.12c-1.7.99-3.9.53-5.03-1.07a3.36 3.36 0 0 1-.6-2.6c.17-.9.72-1.68 1.51-2.16l4.75-2.97c.3-.18.62-.32.97-.42 1.54-.39 3.15.2 4.06 1.47.64.88.82 2 .49 3.03l-.09.28-.25-.16a6.27 6.27 0 0 0-1.87-.92L15.08 8l.02-.17c.01-.24-.06-.5-.2-.7a1.15 1.15 0 0 0-1.52-.33l-4.76 3a.96.96 0 0 0-.45.65c-.05.26.02.56.17.77.28.4.77.56 1.23.45.11-.04.21-.07.3-.12l1.82-1.14a3.81 3.81 0 0 1 5.03 1.05c.55.76.76 1.68.6 2.6a3.2 3.2 0 0 1-1.48 2.16l-4.76 2.96c-.3.19-.64.33-.99.43Z"/>
</svg>
