<svg xmlns="http://www.w3.org/2000/svg" fill="none" viewBox="0 0 24 24">
  <path fill="currentcolor" d="M2.4 1.92a.48.48 0 0 0-.48.48v19.2a.48.48 0 0 0 .48.48h19.2a.48.48 0 0 0 .48-.48V2.4a.48.48 0 0 0-.48-.48H2.4Zm.48.96h18.24v18.24H2.88V2.88Zm4.32 8.16v1.65h2.4v7.47h1.92v-7.47h2.4v-1.65H7.2Zm10.41 0c-1.5 0-3.2.45-3.2 2.56 0 2.75 3.7 2.75 3.7 3.99 0 .11.05.97-1.25.97-1.31 0-2.4-.82-2.4-.82v2s5.7 1.84 5.7-2.32c0-2.7-3.74-2.57-3.74-3.9 0-.53.37-1.01 1.4-1.01 1.02 0 1.92.6 1.92.6l.07-1.78s-1.04-.28-2.2-.29Z"/>
</svg>
