<svg xmlns="http://www.w3.org/2000/svg" fill="none" viewBox="0 0 24 24">
  <path fill="currentcolor" d="M22.46 7.41h-3.52l-10.7 13.9h3.67l10.55-13.9Zm-11.63.69c0 .4-.34.73-.75.73a.74.74 0 0 1-.75-.73c0-.41.33-.74.75-.74.41 0 .75.33.75.74Zm1.98 1.7c0 .5-.41.91-.92.91-.5 0-.92-.4-.92-.9s.41-.9.92-.9c.5 0 .92.4.92.9Z"/>
  <path fill="currentcolor" d="M13.87 10.8a1.1 1.1 0 0 0-1.11 1.09c0 .23.07.44.2.62 0 0 1.9 2.8 2.8 4.24.82 1.31 1.27 2.72 2.36 4 .27.33.69.54 1.1.65.65.17 2.02 0 2.02 0s-1.14-2.88-2.89-5.58a46.68 46.68 0 0 0-3.6-4.59v-.01a1.1 1.1 0 0 0-.1-.1 1.1 1.1 0 0 0-.78-.32ZM2 2s2.3 1.8 3.35 2.67a59.57 59.57 0 0 1 2.69 2.44h.01a.57.57 0 0 0 .93-.45c0-.18-.1-.34-.23-.44l-.03-.02c-.08-.06-1.45-1-2.67-1.77C4.73 3.59 2 2 2 2Z"/>
</svg>
