<?xml version="1.0" standalone="no"?>
<!DOCTYPE svg PUBLIC "-//W3C//DTD SVG 20010904//EN"
 "http://www.w3.org/TR/2001/REC-SVG-20010904/DTD/svg10.dtd">
<svg version="1.0" xmlns="http://www.w3.org/2000/svg"
 width="700.000000pt" height="700.000000pt" viewBox="0 0 700.000000 700.000000"
 preserveAspectRatio="xMidYMid meet">
<metadata>
Created by potrace 1.14, written by Peter Selinger 2001-2017
</metadata>
<g transform="translate(0.000000,700.000000) scale(0.100000,-0.100000)"
fill="#000000" stroke="none">
<path d="M1829 5946 c-2 -2 -23 -6 -46 -9 -241 -34 -480 -197 -609 -417 -54
-91 -80 -159 -105 -270 -18 -81 -18 -154 -18 -1745 0 -1023 4 -1683 10 -1720
36 -223 161 -425 349 -564 91 -68 218 -128 306 -145 10 -2 46 -9 79 -15 44 -9
505 -11 1745 -8 1811 3 1700 0 1838 51 156 57 324 188 419 326 66 98 122 235
140 348 10 61 10 3383 0 3444 -50 308 -278 576 -577 680 -139 48 -88 47 -1861
47 -916 1 -1668 -1 -1670 -3z m3593 -1408 c8 -24 2 -2563 -6 -2608 -20 -110
-100 -226 -201 -289 -110 -69 5 -65 -1695 -66 -1131 -1 -1550 2 -1592 11 -119
24 -216 89 -280 188 -77 119 -72 18 -73 1466 -1 712 0 1298 2 1303 2 4 867 7
1923 7 1525 0 1919 -3 1922 -12z"/>
<path d="M2022 3829 c-23 -12 -51 -34 -62 -49 -17 -24 -37 -90 -35 -115 7 -66
21 -83 319 -383 165 -166 302 -304 303 -305 2 -2 -130 -136 -292 -298 -162
-162 -301 -308 -310 -326 -22 -45 -24 -84 -8 -134 32 -97 134 -143 230 -104
27 11 151 128 414 393 359 359 377 379 387 425 21 102 28 93 -382 505 -238
238 -386 379 -412 392 -52 26 -98 25 -152 -1z"/>
<path d="M3255 2436 c-47 -20 -93 -79 -100 -129 -11 -75 7 -121 69 -171 l38
-31 835 -3 836 -2 44 21 c100 48 126 173 56 266 -50 66 -17 63 -926 63 -652
-1 -828 -4 -852 -14z"/>
</g>
</svg>
